<?xml version="1.0" standalone="no"?>
<!DOCTYPE svg PUBLIC "-//W3C//DTD SVG 20010904//EN"
 "http://www.w3.org/TR/2001/REC-SVG-20010904/DTD/svg10.dtd">
<svg version="1.0" xmlns="http://www.w3.org/2000/svg"
 width="250.000000pt" height="250.000000pt" viewBox="0 0 250.000000 250.000000"
 preserveAspectRatio="xMidYMid meet">

<g transform="translate(0.000000,250.000000) scale(0.100000,-0.100000)"
fill="#fff" stroke="none">
<path d="M966 2263 c-67 -3 -85 -8 -121 -33 -51 -35 -90 -85 -117 -149 -20
-48 -20 -51 -3 -103 14 -42 33 -67 89 -121 39 -38 83 -76 99 -85 45 -27 32
-51 -40 -77 -80 -28 -91 -38 -120 -103 -25 -58 -30 -126 -11 -168 7 -15 71
-78 143 -141 l130 -114 59 5 c33 4 61 8 63 10 3 2 7 55 10 118 l5 113 -74 57
c-103 81 -158 137 -158 162 0 11 13 36 28 53 l27 33 64 -54 c61 -50 65 -53 90
-40 36 19 109 17 150 -4 68 -34 82 -74 69 -192 -3 -25 -3 -25 69 -22 70 4 72
3 110 -31 34 -32 38 -40 36 -81 -1 -25 1 -46 4 -46 22 0 93 126 93 165 0 11
-15 49 -33 85 -27 55 -47 77 -132 147 -55 45 -144 118 -197 162 -53 45 -160
133 -237 196 -136 112 -161 138 -161 167 0 21 38 58 60 58 10 0 98 -64 195
-142 97 -79 191 -154 210 -168 35 -26 85 -95 85 -117 0 -7 -9 -21 -20 -30 -53
-46 10 -59 90 -18 96 49 143 163 106 259 -19 48 -47 78 -176 185 l-85 71 -160
-2 c-88 -1 -195 -4 -239 -5z"/>
<path d="M1155 1591 c53 -23 53 -26 20 -440 -12 -149 -12 -177 0 -201 19 -37
77 -64 121 -56 34 7 57 26 31 26 -8 0 -22 9 -31 19 -17 18 -17 33 -2 253 9
128 16 263 16 299 0 87 -15 102 -108 106 -46 2 -61 0 -47 -6z"/>
<path d="M1399 1346 l23 -24 -12 -162 c-6 -89 -14 -168 -17 -176 -11 -29 12
-12 73 54 l63 67 1 113 c0 139 -8 152 -97 152 l-56 0 22 -24z"/>
<path d="M1342 1220 c-18 -29 -15 -42 10 -38 16 2 23 10 22 27 0 31 -16 37
-32 11z"/>
<path d="M387 684 c-1 -1 0 -32 1 -68 3 -54 7 -66 21 -66 14 0 16 11 16 69 0
61 -2 69 -18 68 -10 -1 -19 -2 -20 -3z"/>
<path d="M475 671 c5 -16 102 -121 111 -121 2 0 4 14 4 30 0 17 -4 30 -8 30
-5 0 -27 18 -50 40 -44 43 -67 52 -57 21z"/>
<path d="M572 678 c6 -18 28 -21 28 -4 0 9 -7 16 -16 16 -9 0 -14 -5 -12 -12z"/>
<path d="M637 683 c-9 -2 -15 -9 -11 -14 3 -6 11 -5 21 2 23 20 35 -7 30 -68
-3 -48 -2 -53 17 -53 19 0 21 6 21 65 0 54 -3 65 -17 65 -9 0 -22 2 -30 4 -7
2 -21 2 -31 -1z"/>
<path d="M732 678 c5 -15 28 -23 28 -10 0 5 -7 13 -16 16 -10 4 -14 1 -12 -6z"/>
<path d="M795 618 c0 -64 1 -68 22 -68 20 0 21 3 13 24 -10 27 -5 36 22 36 11
0 17 4 13 10 -3 5 -12 7 -19 4 -20 -8 -29 27 -11 45 13 13 19 14 36 3 18 -11
20 -11 17 0 -3 8 -21 13 -49 13 l-44 0 0 -67z"/>
<path d="M932 666 c6 -10 8 -41 6 -67 -5 -47 -4 -49 20 -49 19 0 23 3 15 11
-12 12 -6 49 8 49 4 0 16 -13 26 -30 9 -16 26 -30 36 -30 17 0 17 2 -4 31 -16
23 -19 33 -10 42 33 33 0 61 -70 62 -33 0 -36 -2 -27 -19z m73 -21 c0 -27 -31
-32 -38 -6 -6 24 1 33 23 29 8 -2 15 -12 15 -23z"/>
<path d="M1190 675 c0 -9 5 -15 11 -13 6 2 11 8 11 13 0 5 -5 11 -11 13 -6 2
-11 -4 -11 -13z"/>
<path d="M1400 675 c7 -9 11 -36 8 -70 -3 -50 -1 -55 17 -55 18 0 20 7 20 62
0 63 -7 75 -44 77 -11 1 -11 -2 -1 -14z"/>
<path d="M1466 676 c3 -9 11 -16 16 -16 13 0 5 23 -10 28 -7 2 -10 -2 -6 -12z"/>
<path d="M1525 618 c0 -58 3 -68 18 -68 14 0 17 9 17 54 0 30 3 61 6 69 4 11
-1 15 -18 14 -22 -2 -23 -6 -23 -69z"/>
<path d="M1627 670 c-17 -14 -27 -31 -27 -49 0 -31 25 -71 45 -71 11 0 11 5
-2 30 -25 52 14 122 51 91 21 -17 21 -85 0 -105 -14 -15 -14 -16 0 -16 9 0 25
9 36 20 62 62 -34 154 -103 100z"/>
<path d="M1880 680 c0 -13 18 -22 24 -11 3 5 -1 11 -9 15 -8 3 -15 1 -15 -4z"/>
<path d="M2085 682 c-5 -4 -10 -35 -10 -70 0 -55 2 -62 20 -62 18 0 20 6 18
67 -1 66 -8 80 -28 65z"/>
<path d="M1092 655 c6 -13 14 -22 18 -20 4 3 24 -15 45 -40 36 -45 57 -51 50
-16 -5 25 -85 100 -107 101 -15 0 -16 -4 -6 -25z"/>
<path d="M1277 661 c-7 -29 34 -110 56 -111 21 0 22 -7 -7 65 -27 64 -40 77
-49 46z"/>
<path d="M1360 669 c0 -5 5 -7 10 -4 6 3 10 8 10 11 0 2 -4 4 -10 4 -5 0 -10
-5 -10 -11z"/>
<path d="M1784 664 c3 -9 6 -20 6 -25 0 -6 4 -8 9 -5 5 3 27 -14 50 -39 23
-25 44 -45 46 -45 3 0 5 14 5 30 0 17 -5 30 -10 30 -6 0 -25 16 -43 35 -33 36
-74 49 -63 19z"/>
<path d="M1971 658 c-6 -16 -5 -25 4 -30 7 -4 16 -24 19 -43 6 -28 11 -35 31
-35 l24 0 -24 53 c-14 28 -25 58 -25 65 0 20 -20 13 -29 -10z"/>
<path d="M1256 604 c-4 -9 -4 -19 -1 -22 2 -3 7 3 11 12 4 9 4 19 1 22 -2 3
-7 -3 -11 -12z"/>
<path d="M876 564 c-4 -10 -1 -14 6 -12 15 5 23 28 10 28 -5 0 -13 -7 -16 -16z"/>
<path d="M1936 571 c-4 -7 -5 -15 -2 -18 9 -9 19 4 14 18 -4 11 -6 11 -12 0z"/>
<path d="M2159 564 c-12 -14 -11 -16 5 -13 11 2 21 10 24 17 5 17 -13 15 -29
-4z"/>
<path d="M475 560 c-3 -5 1 -10 9 -10 9 0 16 5 16 10 0 6 -4 10 -9 10 -6 0
-13 -4 -16 -10z"/>
<path d="M1085 560 c-3 -5 1 -10 9 -10 9 0 16 5 16 10 0 6 -4 10 -9 10 -6 0
-13 -4 -16 -10z"/>
<path d="M1235 560 c-3 -5 -1 -10 4 -10 6 0 11 5 11 10 0 6 -2 10 -4 10 -3 0
-8 -4 -11 -10z"/>
<path d="M1780 560 c0 -5 7 -10 16 -10 8 0 12 5 9 10 -3 6 -10 10 -16 10 -5 0
-9 -4 -9 -10z"/>
<path d="M370 445 c8 -10 11 -40 8 -90 l-3 -75 53 0 c29 0 62 5 73 10 22 13
25 52 4 70 -12 10 -12 15 0 34 13 19 13 25 -1 44 -13 19 -24 22 -81 22 -57 0
-64 -2 -53 -15z m88 -4 c19 -12 11 -55 -10 -59 -15 -3 -18 4 -18 32 0 37 5 42
28 27z m16 -93 c8 -13 8 -23 0 -35 -19 -31 -39 -21 -42 20 -3 32 0 38 14 35 9
-1 22 -11 28 -20z"/>
<path d="M560 452 c0 -5 3 -12 7 -16 11 -10 12 -106 2 -133 -8 -22 -6 -23 32
-23 36 0 40 2 29 15 -8 10 -11 40 -8 90 l3 75 -32 0 c-18 0 -33 -4 -33 -8z"/>
<path d="M699 431 c-31 -31 -37 -67 -17 -104 18 -35 40 -46 88 -46 48 0 70 11
88 46 33 62 -14 133 -88 133 -33 0 -48 -6 -71 -29z m105 -3 c33 -46 10 -138
-34 -138 -10 0 -26 10 -34 22 -33 46 -10 138 34 138 10 0 26 -10 34 -22z"/>
<path d="M986 441 c-25 -27 -13 -57 35 -87 26 -16 39 -31 37 -42 -5 -25 -45
-27 -58 -3 -13 26 -30 27 -30 2 0 -13 10 -21 33 -26 42 -10 58 -7 80 14 22 22
14 67 -13 76 -33 10 -69 45 -63 60 7 19 37 19 53 0 18 -22 32 -18 20 5 -14 27
-70 27 -94 1z"/>
<path d="M1130 451 c0 -6 5 -13 10 -16 6 -3 10 -33 10 -65 0 -32 -4 -62 -10
-65 -26 -16 -3 -25 65 -25 75 0 75 0 75 27 l0 27 -21 -23 c-29 -31 -63 -25
-67 13 -4 36 11 54 33 36 13 -11 15 -9 15 16 0 22 -3 25 -12 16 -23 -23 -38
-13 -38 23 0 29 4 35 22 35 12 0 30 -7 40 -17 17 -15 18 -15 18 5 0 20 -5 22
-70 22 -38 0 -70 -4 -70 -9z"/>
<path d="M1318 448 c7 -7 12 -40 12 -78 0 -38 -5 -71 -12 -78 -9 -9 -3 -12 30
-12 23 0 42 5 42 10 0 6 -5 10 -11 10 -14 0 -7 52 8 57 7 3 23 -14 38 -36 18
-30 32 -41 50 -41 l25 0 -30 42 c-27 37 -29 43 -15 58 40 44 2 80 -85 80 -50
0 -61 -3 -52 -12z m102 -17 c12 -23 5 -47 -17 -55 -22 -9 -33 2 -33 33 0 44
30 58 50 22z"/>
<path d="M1538 370 c23 -49 47 -90 51 -90 5 0 14 15 21 33 7 17 26 58 42 90
l28 57 -25 0 c-22 0 -25 -4 -20 -20 8 -24 -14 -90 -30 -90 -17 0 -47 69 -40
91 6 16 1 19 -32 19 l-39 0 44 -90z"/>
<path d="M1708 448 c7 -7 12 -40 12 -78 0 -38 -5 -71 -12 -78 -9 -9 -2 -12 32
-12 34 0 41 3 32 12 -15 15 -16 122 -2 149 10 17 7 19 -32 19 -33 0 -39 -3
-30 -12z"/>
<path d="M1857 449 c-27 -16 -49 -67 -42 -98 7 -33 41 -68 70 -72 11 -1 37 1
58 5 31 7 37 12 37 33 l0 26 -21 -27 c-41 -52 -99 -22 -99 52 0 29 6 48 20 62
27 27 46 25 75 -6 l25 -27 0 25 c0 21 -6 27 -31 32 -44 8 -71 7 -92 -5z"/>
<path d="M2028 448 c16 -16 16 -140 0 -156 -10 -10 3 -12 67 -10 74 3 80 5 83
26 4 28 -5 28 -27 0 -14 -16 -24 -19 -44 -14 -22 5 -27 12 -27 36 0 34 15 47
35 30 12 -10 16 -9 21 5 4 9 2 21 -5 28 -8 8 -11 8 -11 -1 0 -7 -9 -12 -21
-12 -17 0 -20 5 -17 33 2 25 8 33 27 35 15 2 30 -3 37 -13 8 -10 14 -12 19 -6
13 22 -8 31 -78 31 -55 0 -68 -3 -59 -12z"/>
</g>
</svg>
