<svg height="184" width="751" viewBox="0 0 751 184"
 xmlns="http://www.w3.org/2000/svg"
  xmlns:xlink="http://www.w3.org/1999/xlink">
  <g fill="#fff"
     fill-rule="evenodd">
     <path d="m361.544 42.437v55.373l-46.261-55.373h-31.67v100.288h29.598v-58.009l48.333 58.009h29.6v-100.288zm46.703 100.288h30.324v-100.288h-30.324zm130.373-76.676c0-12.806-5.223-23.598-19.237-23.598h-64.103v22.663h47.034c3.234 0 5.384 1.63 5.415 7.366-.03 5.742-2.18 7.387-5.415 7.387h-47.034v62.858h30.35v-40.192h33.753c14.014 0 19.236-10.81 19.236-23.615v-12.87m89.386.001c0-12.806-5.181-23.598-19.223-23.598h-61.552v22.663h44.487c3.261 0 5.366 1.63 5.405 7.366-.039 5.742-2.144 7.387-5.405 7.387h-44.487v21.904l42.695 40.954h40.651l-45.501-40.192h23.707c14.042 0 19.223-10.81 19.223-23.615v-12.87"/><path d="m111.115 50.894c0 49.908-3.81 50.843-55.419 50.843-51.553 0-55.362-.935-55.362-50.843 0-49.852 3.81-50.797 55.362-50.797 51.61 0 55.42.945 55.42 50.797zm-31.129-22.955c0-2.235-1.785-4.048-4.006-4.048h-40.118c-2.227 0-4.056 1.813-4.056 4.048v45.966c0 2.21 1.83 4.023 4.056 4.023h40.118c2.221 0 4.006-1.813 4.006-4.023z" mask="url(#a)" transform="translate(639 40.619)"/><path d="m0 128.033v-81.828c0-26.495 22.58-45.484 42.855-45.484 20.294 0 30.756 8.185 38.618 17.333 7.85 9.165 102.44 121.432 102.44 121.432l2.61 3.09c4.896 5.801 13.571 6.54 19.373 1.64 5.801-4.896 6.538-13.569 1.641-19.37l-.946-1.118-68.145-80.8c-8.502-10.466-24.568-5.874-24.568 6.89 0 0-4.3-5.102-4.565-5.412.4-36.589 27.588-44.025 41.867-44.025 14.39 0 21.28 3.278 33.711 17.673 12.444 14.408 32.42 38.944 32.42 38.944v82.488c0 26.184-20.932 44.514-42.537 44.514-21.612 0-30.454-7.528-38.31-16.699-7.76-9.06-96.795-114.408-106.073-125.654l-.12-.15c-4.806-5.693-13.317-6.414-19.012-1.61s-6.415 13.315-1.61 19.015l.184.211 72.293 85.612c8.245 6.98 22.948 1.051 23.26-7.65.412.481 4.244 5.025 4.244 5.025 0 22.58-15.72 41.9-44.186 41.9-16.382 0-24.216-7.52-32.079-16.686-7.863-9.172-33.365-39.28-33.365-39.28" mask="url(#b)" 
     transform="translate(0 -.381)"/></g></svg>